<?xml version="1.0" encoding="utf-8"?>
<!-- Generator: Adobe Illustrator 27.5.0, SVG Export Plug-In . SVG Version: 6.00 Build 0)  -->
<svg version="1.1" xmlns="http://www.w3.org/2000/svg" xmlns:xlink="http://www.w3.org/1999/xlink" x="0px" y="0px"
	 viewBox="0 0 750 500" style="enable-background:new 0 0 750 500;" xml:space="preserve">
<g id="Background_Simple">
	<path style="fill:#92E3A9;stroke:#263238;stroke-miterlimit:10;" d="M728.054,178.742c-17.051-38.965-56.516-80.921-94.138-100.759
		c-42.114-22.207-93.629-51.454-186.414-60.732C344.116,6.912,268.679,77.983,250.965,94.853s9.279-32.053-25.305-26.992
		C191.077,72.922,17.315,206.195,7.193,261.866c-10.122,55.671,10.965,152.674,94.472,192.319
		c83.507,39.645,350.897,26.992,446.213-2.531c95.316-29.523,134.805-48.651,168.701-107.969
		C750.319,284.641,749.133,226.914,728.054,178.742z"/>
	<path style="opacity:0.7;stroke:#263238;stroke-miterlimit:10;" d="M728.054,178.742c-17.051-38.965-56.516-80.921-94.138-100.759
		c-42.114-22.207-93.629-51.454-186.414-60.732C344.116,6.912,268.679,77.983,250.965,94.853s9.279-32.053-25.305-26.992
		C191.077,72.922,17.315,206.195,7.193,261.866c-10.122,55.671,10.965,152.674,94.472,192.319
		c83.507,39.645,350.897,26.992,446.213-2.531c95.316-29.523,134.805-48.651,168.701-107.969
		C750.319,284.641,749.133,226.914,728.054,178.742z"/>
</g>
<g id="Stars">
	<g>
		<path style="fill:#FFFFFF;stroke:#263238;stroke-width:0.5;stroke-miterlimit:10;" d="M569.034,116.938
			c0,1.719-1.394,3.113-3.113,3.113c-1.719,0-3.113-1.394-3.113-3.113c0-1.719,1.394-3.113,3.113-3.113
			C567.64,113.825,569.034,115.219,569.034,116.938z"/>
		<circle style="fill:#FFFFFF;stroke:#263238;stroke-width:0.5;stroke-miterlimit:10;" cx="678.943" cy="155.168" r="3.113"/>
		<path style="fill:#FFFFFF;stroke:#263238;stroke-width:0.5;stroke-miterlimit:10;" d="M696.45,260.535
			c0,1.348-1.093,2.441-2.441,2.441c-1.348,0-2.441-1.093-2.441-2.441c0-1.348,1.093-2.441,2.441-2.441
			C695.357,258.094,696.45,259.187,696.45,260.535z"/>
		<path style="fill:#FFFFFF;stroke:#263238;stroke-width:0.5;stroke-miterlimit:10;" d="M497.362,92.577
			c0,1.348-1.093,2.441-2.441,2.441c-1.348,0-2.441-1.093-2.441-2.441s1.093-2.441,2.441-2.441
			C496.27,90.136,497.362,91.229,497.362,92.577z"/>
		<path style="fill:#FFFFFF;stroke:#263238;stroke-width:0.5;stroke-miterlimit:10;" d="M247.788,169.93
			c0,1.348-1.093,2.441-2.441,2.441s-2.441-1.093-2.441-2.441s1.093-2.441,2.441-2.441S247.788,168.582,247.788,169.93z"/>
		<path style="fill:#FFFFFF;stroke:#263238;stroke-width:0.5;stroke-miterlimit:10;" d="M37.675,281.951
			c0,1.348-1.093,2.441-2.441,2.441c-1.348,0-2.441-1.093-2.441-2.441c0-1.348,1.093-2.441,2.441-2.441
			C36.582,279.51,37.675,280.603,37.675,281.951z"/>
		<path style="fill:#FFFFFF;stroke:#263238;stroke-width:0.5;stroke-miterlimit:10;" d="M640.999,220.859
			c0,1.719-1.394,3.113-3.113,3.113c-1.719,0-3.113-1.394-3.113-3.113c0-1.719,1.394-3.113,3.113-3.113
			C639.605,217.746,640.999,219.14,640.999,220.859z"/>
		<path style="fill:#FFFFFF;stroke:#263238;stroke-width:0.5;stroke-miterlimit:10;" d="M633.472,159.838
			c0,0.859-0.697,1.556-1.556,1.556c-0.86,0-1.556-0.697-1.556-1.556c0-0.86,0.697-1.557,1.556-1.557
			C632.775,158.281,633.472,158.978,633.472,159.838z"/>
		<path style="fill:#FFFFFF;stroke:#263238;stroke-width:0.5;stroke-miterlimit:10;" d="M428.268,26.198
			c0,1.719-1.394,3.113-3.113,3.113c-1.719,0-3.113-1.394-3.113-3.113c0-1.719,1.394-3.113,3.113-3.113
			C426.874,23.085,428.268,24.479,428.268,26.198z"/>
		<path style="fill:#FFFFFF;stroke:#263238;stroke-width:0.5;stroke-miterlimit:10;" d="M638.611,115.506
			c0,1.719-1.394,3.113-3.113,3.113c-1.719,0-3.113-1.394-3.113-3.113s1.394-3.113,3.113-3.113
			C637.218,112.393,638.611,113.787,638.611,115.506z"/>
		<path style="fill:#FFFFFF;stroke:#263238;stroke-width:0.5;stroke-miterlimit:10;" d="M595.836,178.81
			c0,1.719-1.394,3.113-3.113,3.113c-1.719,0-3.113-1.394-3.113-3.113c0-1.719,1.394-3.113,3.113-3.113
			C594.443,175.697,595.836,177.09,595.836,178.81z"/>
		<circle style="fill:#FFFFFF;stroke:#263238;stroke-width:0.5;stroke-miterlimit:10;" cx="494.363" cy="58.992" r="1.798"/>
		<circle style="fill:#FFFFFF;stroke:#263238;stroke-width:0.5;stroke-miterlimit:10;" cx="371.492" cy="104.538" r="1.798"/>
		<path style="fill:#FFFFFF;stroke:#263238;stroke-width:0.5;stroke-miterlimit:10;" d="M335.603,80.05
			c0,1.402-1.137,2.539-2.539,2.539s-2.539-1.137-2.539-2.539c0-1.402,1.137-2.539,2.539-2.539S335.603,78.648,335.603,80.05z"/>
		<path style="fill:#FFFFFF;stroke:#263238;stroke-width:0.5;stroke-miterlimit:10;" d="M163.722,233.555
			c0,1.402-1.137,2.539-2.539,2.539c-1.402,0-2.539-1.137-2.539-2.539c0-1.402,1.137-2.539,2.539-2.539
			C162.585,231.016,163.722,232.153,163.722,233.555z"/>
		<path style="fill:#FFFFFF;stroke:#263238;stroke-width:0.5;stroke-miterlimit:10;" d="M102.943,165.951
			c0,1.402-1.137,2.539-2.539,2.539c-1.402,0-2.539-1.137-2.539-2.539c0-1.402,1.137-2.539,2.539-2.539
			C101.806,163.412,102.943,164.549,102.943,165.951z"/>
		<path style="fill:#FFFFFF;stroke:#263238;stroke-width:0.5;stroke-miterlimit:10;" d="M106.954,251.915
			c0,1.402-1.137,2.539-2.539,2.539c-1.402,0-2.539-1.137-2.539-2.539c0-1.402,1.137-2.539,2.539-2.539
			C105.817,249.376,106.954,250.513,106.954,251.915z"/>
		<path style="fill:#FFFFFF;stroke:#263238;stroke-width:0.5;stroke-miterlimit:10;" d="M194.751,105.712
			c0,1.402-1.137,2.539-2.539,2.539c-1.402,0-2.539-1.137-2.539-2.539c0-1.402,1.137-2.539,2.539-2.539
			C193.615,103.173,194.751,104.31,194.751,105.712z"/>
		<path style="fill:#FFFFFF;stroke:#263238;stroke-width:0.5;stroke-miterlimit:10;" d="M349.746,159.376
			c0,1.402-1.137,2.539-2.539,2.539c-1.402,0-2.539-1.137-2.539-2.539c0-1.402,1.137-2.539,2.539-2.539
			C348.609,156.837,349.746,157.974,349.746,159.376z"/>
		<path style="fill:#FFFFFF;stroke:#263238;stroke-width:0.5;stroke-miterlimit:10;" d="M157.844,128.314
			c0,1.794-1.454,3.249-3.249,3.249c-1.794,0-3.249-1.454-3.249-3.249c0-1.794,1.454-3.249,3.249-3.249
			C156.389,125.066,157.844,126.52,157.844,128.314z"/>
		<path style="fill:#FFFFFF;stroke:#263238;stroke-width:0.5;stroke-miterlimit:10;" d="M69.564,244.851
			c0,1.794-1.454,3.249-3.249,3.249c-1.794,0-3.249-1.454-3.249-3.249s1.454-3.249,3.249-3.249
			C68.11,241.602,69.564,243.057,69.564,244.851z"/>
		<path style="fill:#92E3A9;stroke:#263238;stroke-width:0.5;stroke-miterlimit:10;" d="M607.719,148.335
			c0,1.227-0.995,2.222-2.222,2.222c-1.227,0-2.222-0.995-2.222-2.222c0-1.227,0.995-2.222,2.222-2.222
			C606.724,146.113,607.719,147.107,607.719,148.335z"/>
		<path style="fill:#92E3A9;stroke:#263238;stroke-width:0.5;stroke-miterlimit:10;" d="M571.003,88.87
			c0,1.227-0.995,2.222-2.222,2.222c-1.227,0-2.222-0.995-2.222-2.222c0-1.227,0.995-2.222,2.222-2.222
			C570.008,86.648,571.003,87.643,571.003,88.87z"/>
		<path style="fill:#92E3A9;stroke:#263238;stroke-width:0.5;stroke-miterlimit:10;" d="M665.426,196.601
			c0,1.227-0.995,2.222-2.222,2.222c-1.227,0-2.222-0.995-2.222-2.222c0-1.227,0.995-2.222,2.222-2.222
			C664.432,194.379,665.426,195.374,665.426,196.601z"/>
		<path style="fill:#92E3A9;stroke:#263238;stroke-width:0.5;stroke-miterlimit:10;" d="M724.959,232.183
			c0,1.227-0.995,2.222-2.222,2.222c-1.227,0-2.222-0.995-2.222-2.222c0-1.227,0.995-2.222,2.222-2.222
			C723.964,229.961,724.959,230.956,724.959,232.183z"/>
		<path style="fill:#92E3A9;stroke:#263238;stroke-width:0.5;stroke-miterlimit:10;" d="M399.958,59.493
			c0,1.227-0.995,2.222-2.222,2.222c-1.227,0-2.222-0.995-2.222-2.222s0.995-2.222,2.222-2.222
			C398.963,57.271,399.958,58.265,399.958,59.493z"/>
		<path style="fill:#92E3A9;stroke:#263238;stroke-width:0.5;stroke-miterlimit:10;" d="M286.629,96.313
			c0,1.227-0.995,2.222-2.222,2.222s-2.222-0.995-2.222-2.222c0-1.227,0.995-2.222,2.222-2.222S286.629,95.085,286.629,96.313z"/>
		<circle style="fill:#92E3A9;stroke:#263238;stroke-width:0.5;stroke-miterlimit:10;" cx="295.943" cy="146.788" r="2.222"/>
		<circle style="fill:#92E3A9;stroke:#263238;stroke-width:0.5;stroke-miterlimit:10;" cx="323.313" cy="117.464" r="2.222"/>
		<path style="fill:#92E3A9;stroke:#263238;stroke-width:0.5;stroke-miterlimit:10;" d="M125.734,168.957
			c0,1.227-0.995,2.222-2.222,2.222c-1.227,0-2.222-0.995-2.222-2.222c0-1.227,0.995-2.222,2.222-2.222
			C124.739,166.735,125.734,167.73,125.734,168.957z"/>
		<path style="fill:#92E3A9;stroke:#263238;stroke-width:0.5;stroke-miterlimit:10;" d="M206.703,211.493
			c0,1.227-0.995,2.222-2.222,2.222c-1.227,0-2.222-0.995-2.222-2.222c0-1.227,0.995-2.222,2.222-2.222
			C205.709,209.271,206.703,210.266,206.703,211.493z"/>
		<circle style="fill:#92E3A9;stroke:#263238;stroke-width:0.5;stroke-miterlimit:10;" cx="71.673" cy="201.247" r="2.222"/>
		<path style="fill:#92E3A9;stroke:#263238;stroke-width:0.5;stroke-miterlimit:10;" d="M144.528,266.715
			c0,1.227-0.995,2.222-2.222,2.222c-1.227,0-2.222-0.995-2.222-2.222c0-1.227,0.995-2.222,2.222-2.222
			C143.533,264.493,144.528,265.488,144.528,266.715z"/>
	</g>
</g>
<g id="Moon">
	<path style="fill:#FFFFFF;stroke:#263238;stroke-width:0.5;stroke-miterlimit:10;" d="M231.319,157.167
		c-13.591,0-24.609-11.018-24.609-24.609c0-7.406,3.276-14.042,8.452-18.553c-8.68,4.561-14.604,13.66-14.604,24.146
		c0,15.058,12.207,27.266,27.266,27.266c14.77,0,26.789-11.746,27.244-26.406C252.232,149.471,242.677,157.167,231.319,157.167z"/>
</g>
<g id="Mountains_1">
	<g>
		<path style="fill:#92E3A9;" d="M685.37,290.546c0,0-87.724-79.289-94.472-81.82c-6.748-2.53-68.324-67.48-86.881-83.507
			c-18.557-16.027-53.984-49.767-60.732-53.141c-6.748-3.374-20.244-0.844-21.931,2.53c-1.687,3.374-5.061,12.653-6.748,18.557
			c-1.687,5.904-21.088,35.427-22.775,41.332c-1.687,5.904-24.462,43.019-29.523,52.297c-5.061,9.279-19.401,23.618-19.401,23.618
			s-27.836-31.21-33.74-34.584c-5.904-3.374-22.775,4.217-26.992,7.592c-4.217,3.374-13.496,13.496-21.088,17.714
			c-7.592,4.217-38.801,21.088-44.706,26.149c-5.904,5.061-24.462,17.714-27.836,19.401c-3.374,1.687-53.141,46.393-53.141,46.393
			l-46.393,40.488h630.941L685.37,290.546"/>
		<path style="opacity:0.59;fill:#FFFFFF;" d="M685.37,290.546c0,0-87.724-79.289-94.472-81.82
			c-6.748-2.53-68.324-67.48-86.881-83.507c-18.557-16.027-53.984-49.767-60.732-53.141c-6.748-3.374-20.244-0.844-21.931,2.53
			c-1.687,3.374-5.061,12.653-6.748,18.557c-1.687,5.904-21.088,35.427-22.775,41.332c-1.687,5.904-24.462,43.019-29.523,52.297
			c-5.061,9.279-19.401,23.618-19.401,23.618s-27.836-31.21-33.74-34.584c-5.904-3.374-22.775,4.217-26.992,7.592
			c-4.217,3.374-13.496,13.496-21.088,17.714c-7.592,4.217-38.801,21.088-44.706,26.149c-5.904,5.061-24.462,17.714-27.836,19.401
			c-3.374,1.687-53.141,46.393-53.141,46.393l-46.393,40.488h630.941L685.37,290.546"/>
		<path style="fill:#92E3A9;stroke:#263238;stroke-miterlimit:10;" d="M482.929,136.184c9.279,7.592,12.653,12.653,12.653,12.653
			s-35.427-28.679-33.74-21.088c1.687,7.592,15.183,22.775,19.401,30.366c4.218,7.592,14.34,20.244,16.027,24.462
			s6.748,11.809,6.748,11.809s-12.652-6.748-13.496,0.844c-0.844,7.592-2.53,21.088-5.061,25.305
			c-2.531,4.217-32.897-29.523-39.645-26.149c-6.748,3.374-11.809,55.671-11.809,55.671l-27.188,83.507h313.136l-34.584-43.019
			c0,0-87.724-79.289-94.472-81.82c-6.748-2.531-68.324-67.48-86.881-83.507c-18.557-16.027-53.984-49.767-60.732-53.141
			C443.284,72.078,473.65,128.593,482.929,136.184z"/>
		<path style="fill:#92E3A9;stroke:#263238;stroke-miterlimit:10;" d="M309.167,175.829v21.088l-5.904,7.592
			c0,0-4.217,8.435-4.217,11.809s-22.775,42.175-16.027,40.488c6.748-1.687,39.645-43.862,39.645-43.862s-0.844,5.061,3.374,5.904
			c4.217,0.843,16.87-8.435,16.87-8.435S317.602,180.046,309.167,175.829z"/>
		<path style="fill:none;stroke:#263238;stroke-miterlimit:10;" d="M685.37,290.546c0,0-87.724-79.289-94.472-81.82
			c-6.748-2.53-68.324-67.48-86.881-83.507c-18.557-16.027-53.984-49.767-60.732-53.141c-6.748-3.374-20.244-0.844-21.931,2.53
			c-1.687,3.374-5.061,12.653-6.748,18.557c-1.687,5.904-21.088,35.427-22.775,41.332c-1.687,5.904-24.462,43.019-29.523,52.297
			c-5.061,9.279-19.401,23.618-19.401,23.618s-27.836-31.21-33.74-34.584c-5.904-3.374-22.775,4.217-26.992,7.592
			c-4.217,3.374-13.496,13.496-21.088,17.714c-7.592,4.217-38.801,21.088-44.706,26.149c-5.904,5.061-24.462,17.714-27.836,19.401
			c-3.374,1.687-53.141,46.393-53.141,46.393l-46.393,40.488h630.941L685.37,290.546"/>
	</g>
</g>
<g id="Mountains_1_1_">
	<g>
		<g>
			<path style="fill:#92E3A9;" d="M713.631,348.707c0.988-1.644,1.972-3.311,2.949-5.021c4.797-8.394,8.863-16.76,12.292-25.077
				l-8.917-12.881c0,0-56.515-24.462-97.847-44.706c-41.332-20.244-96.159-37.114-102.907-33.74
				c-6.748,3.374-42.175,30.366-42.175,30.366s-19.401-5.905-21.931-5.061c-2.53,0.844-13.496,7.592-16.87,9.279
				c-3.374,1.687-30.366,12.652-39.645,16.027c-9.279,3.374-43.862,14.34-46.393,15.183c-2.53,0.844-36.271,4.217-38.801,4.217
				c-2.531,0-37.114-10.122-37.114-10.122s-41.332-23.618-46.393-23.618c-5.061,0-30.366,11.809-30.366,11.809l-35.427,23.618
				c0,0-66.637-30.366-75.072-32.053s-30.366,12.652-34.584,15.183c-3.038,1.823-29.272,36.033-43.709,55.025
				c0.943,3.85,2.022,7.712,3.21,11.571H713.631z"/>
			<path style="opacity:0.29;" d="M713.631,348.707c0.988-1.644,1.972-3.311,2.949-5.021c4.797-8.394,8.863-16.76,12.292-25.077
				l-8.917-12.881c0,0-56.515-24.462-97.847-44.706c-41.332-20.244-96.159-37.114-102.907-33.74
				c-6.748,3.374-42.175,30.366-42.175,30.366s-19.401-5.905-21.931-5.061c-2.53,0.844-13.496,7.592-16.87,9.279
				c-3.374,1.687-30.366,12.652-39.645,16.027c-9.279,3.374-43.862,14.34-46.393,15.183c-2.53,0.844-36.271,4.217-38.801,4.217
				c-2.531,0-37.114-10.122-37.114-10.122s-41.332-23.618-46.393-23.618c-5.061,0-30.366,11.809-30.366,11.809l-35.427,23.618
				c0,0-66.637-30.366-75.072-32.053s-30.366,12.652-34.584,15.183c-3.038,1.823-29.272,36.033-43.709,55.025
				c0.943,3.85,2.022,7.712,3.21,11.571H713.631z"/>
			<g style="opacity:0.34;">
				<path style="fill:#FFFFFF;" d="M298.474,306.483c25.064,8.109,44.967,6.634,67.819-5.16
					c21.426-11.059,60.348-29.893,74.237-40.707c-0.931,0.524-1.735,0.964-2.307,1.25c-3.374,1.687-30.366,12.652-39.645,16.027
					c-9.279,3.374-43.862,14.34-46.393,15.183c-2.53,0.844-36.271,4.217-38.801,4.217c-2.531,0-37.114-10.122-37.114-10.122
					s-41.332-23.618-46.393-23.618C229.878,263.553,273.41,298.375,298.474,306.483z"/>
				<path style="fill:#FFFFFF;" d="M229.878,263.553c-0.794,0-2.086,0.291-3.7,0.781L229.878,263.553z"/>
				<path style="fill:#FFFFFF;" d="M455.093,252.588c-0.18,0.06-0.411,0.156-0.67,0.272c1.271,1.052,2.318,3.16,4.016,5.708
					c4.423,6.635,4.423,14.743,11.057,12.532c6.635-2.211,18.429-16.218,18.429-16.218s-13.269,21.378-10.32,28.012
					c2.949,6.634,33.172-16.955,40.544-29.487c7.372-12.532,9.583-16.955,12.532-16.955c2.949,0,8.109,1.474,13.269,1.474
					c2.602,0,4.264-2.438,4.992-5.326c-15.415-4.546-26.887-6.746-29.743-5.318c-6.748,3.374-42.175,30.366-42.175,30.366
					S457.624,251.744,455.093,252.588z"/>
				<path style="fill:#FFFFFF;" d="M120.08,314.592c7.372,5.897,25.064,14.006,25.064,8.109c0-5.897-3.686-14.743-3.686-14.743
					l14.006,0.737l14.006-13.269l0.008-0.041l-5.393,3.595c0,0-66.637-30.366-75.072-32.053
					c-4.317,5.646-15.375,13.018-9.477,19.652C85.433,293.214,112.708,308.695,120.08,314.592z"/>
			</g>
			<path style="fill:none;stroke:#263238;stroke-miterlimit:10;" d="M713.631,348.707c0.988-1.644,1.972-3.311,2.949-5.021
				c4.797-8.394,8.863-16.76,12.292-25.077l-8.917-12.881c0,0-56.515-24.462-97.847-44.706
				c-41.332-20.244-96.159-37.114-102.907-33.74c-6.748,3.374-42.175,30.366-42.175,30.366s-19.401-5.905-21.931-5.061
				c-2.53,0.844-13.496,7.592-16.87,9.279c-3.374,1.687-30.366,12.652-39.645,16.027c-9.279,3.374-43.862,14.34-46.393,15.183
				c-2.53,0.844-36.271,4.217-38.801,4.217c-2.531,0-37.114-10.122-37.114-10.122s-41.332-23.618-46.393-23.618
				c-5.061,0-30.366,11.809-30.366,11.809l-35.427,23.618c0,0-66.637-30.366-75.072-32.053s-30.366,12.652-34.584,15.183
				c-3.038,1.823-29.272,36.033-43.709,55.025c0.943,3.85,2.022,7.712,3.21,11.571H713.631z"/>
		</g>
		<path style="fill:#263238;" d="M713.629,348.707c0.988-1.645,1.973-3.31,2.95-5.021c3.874-6.78,7.267-13.542,10.243-20.275
			c-1.564-4.247-3.751-9.022-5.938-9.959c-4.097-1.756-8.779,19.313-8.779,19.313s-2.926-4.682-7.608-8.193
			s-4.682,7.608-4.682,7.608s0,0-4.097-4.097c-4.097-4.097-9.949,7.023-9.949,7.023s-1.756-3.511-4.097-7.608
			c-2.341-4.097-10.534,5.267-10.534,5.267s0.585-8.193-2.341-14.046c-2.926-5.852-8.779,11.119-8.779,11.119
			s-7.608-25.75-14.631-28.677c-7.023-2.926-6.438,25.165-6.438,25.165s-2.926-2.926-5.267-6.438
			c-2.341-3.511-9.364,2.926-9.364,2.926s-5.267-5.852-11.12-8.779c-5.852-2.926-15.216,10.534-15.216,10.534
			s-18.728-1.756-26.921-1.171c-8.193,0.585-11.12-1.171-11.12-1.171l-52.672,1.171l-9.949-0.585c0,0-0.585-7.023-2.926-11.12
			c-2.341-4.097-8.779,11.12-8.779,11.12s-5.853-28.091-10.534-29.847c-4.682-1.756-8.193,32.773-8.193,32.773
			s-1.756-4.682-5.852-7.608c-4.097-2.926-9.364,9.949-9.364,9.949s-10.534-2.341-31.018-1.756
			c-20.483,0.585-45.063,15.216-45.063,15.216l-32.773-5.267h-4.097l-13.461,1.756l-19.898,2.341c0,0-15.216-4.682-21.069-6.438
			c-5.852-1.756-18.142-4.682-18.142-4.682l-19.898,8.193l-5.267-1.171h-10.534l-7.608-4.097l-9.949,2.341
			c0,0-34.529-13.461-41.552-16.387c-7.023-2.926-38.041,16.387-38.041,16.387s-5.267-2.341-7.608-3.512
			c-2.341-1.171-9.364,4.097-9.364,4.097s-5.267-1.171-9.364-1.171c-4.097,0-8.779,3.511-12.29,2.926
			c-3.511-0.585-29.847-18.142-36.61-17.707c-6.763,0.436-38.301,28.826-38.301,28.826l-0.887,0.725H713.629z"/>
	</g>
</g>
<g id="Floor_1_">
	<g>
		<path style="fill:#92E3A9;" d="M12.716,344.651c12.26,42.966,39.782,86.192,88.95,109.534
			c83.507,39.645,350.898,26.992,446.213-2.531c94.794-29.361,134.37-48.448,168.142-107.004H12.716z"/>
		<path style="opacity:0.13;" d="M12.716,344.651c12.26,42.966,39.782,86.192,88.95,109.534
			c83.507,39.645,350.898,26.992,446.213-2.531c94.794-29.361,134.37-48.448,168.142-107.004H12.716z"/>
		<path style="fill:none;stroke:#263238;stroke-miterlimit:10;" d="M12.716,344.651c12.26,42.966,39.782,86.192,88.95,109.534
			c83.507,39.645,350.898,26.992,446.213-2.531c94.794-29.361,134.37-48.448,168.142-107.004H12.716z"/>
	</g>
</g>
<g id="Trees">
	<path style="display:none;fill:#263238;stroke:#263238;stroke-miterlimit:10;" d="M552.562,418.039
		c-3.06,5.355-12.239-0.765-18.358,3.06c-6.119,3.825-9.944,8.414-9.944,8.414s-12.534-13.803-29.067-12.239
		c-16.533,1.564-27.537,29.832-27.537,29.832s-3.825-13.004-17.593-10.709c-13.769,2.295-22.948,19.888-32.127,19.123
		c-9.179-0.765-12.239-9.179-19.888-7.649c-7.649,1.53-15.299,10.709-15.299,10.709s-13.203-6.214-18.678-4.189
		c-5.476,2.025-14.214,7.248-20.333,11.838c-0.538,0.404-1.138,0.826-1.78,1.258c81.95-3.002,162.112-13.006,205.922-26.576
		c37.51-11.618,66.368-21.629,89.647-33.112c-14.484-10.822-34.569-23.869-46.718-23.419
		C570.155,385.147,555.622,412.684,552.562,418.039z"/>
	<g>
		<g>
			<path style="fill:#92E3A9;" d="M643.242,360.383c0,24.77-14.65,44.84-32.72,44.84c-13.31,0-24.76-10.89-29.88-26.52
				c-1.82-5.6-2.84-11.8-2.84-18.32c0-24.76,14.65-109.88,32.72-109.88c13.53,0,25.15,47.75,30.13,82.13
				c0.01,0.04,0.02,0.09,0.02,0.14C642.322,344.233,643.242,354.193,643.242,360.383z"/>
			<path style="opacity:0.54;" d="M643.242,360.383c0,24.77-14.65,44.84-32.72,44.84c-13.31,0-24.76-10.89-29.88-26.52
				c-0.01-0.44-0.01-0.88-0.01-1.32c0-24.76,14.65-109.88,32.72-109.88c11.4,0,21.44,33.89,27.3,65.13
				c0.01,0.04,0.02,0.09,0.02,0.14C642.322,344.233,643.242,354.193,643.242,360.383z"/>
			<polygon style="fill:#263238;" points="628.869,373.34 618.961,377.004 620.949,371.04 616.212,378.021 611.482,379.77 
				611.145,360.185 628.358,337.317 619.133,346.541 620.693,340.127 616.28,349.394 611.049,354.625 610.521,324.027 
				608.646,368.654 592.335,351.368 601.295,363.548 592.846,362.609 603.282,366.25 608.452,373.278 607.548,394.795 
				601.532,390.712 607.361,399.248 605.926,432.371 612.625,429.579 611.536,382.895 			"/>
		</g>
		<g>
			<path style="fill:#92E3A9;" d="M449.692,429.073c0,20.47-12.11,37.07-27.05,37.07c-10.6,0-19.77-8.35-24.2-20.52
				c-1.83-4.98-2.85-10.6-2.85-16.55c0-20.47,12.11-90.84,27.05-90.84c10.64,0,19.84,35.69,24.26,63.62
				C448.692,413.152,449.692,423.182,449.692,429.073z"/>
			<path style="opacity:0.54;" d="M449.692,429.073c0,20.47-12.11,37.07-27.05,37.07c-10.6,0-19.77-8.35-24.2-20.52
				c-0.02-0.32-0.02-0.65-0.02-0.97c0-20.47,12.11-90.83,27.05-90.83c8.72,0,16.48,23.99,21.43,48.03
				C448.692,413.152,449.692,423.182,449.692,429.073z"/>
			<polygon style="fill:#263238;" points="437.808,439.781 429.617,442.81 431.261,437.88 427.345,443.651 423.435,445.097 
				423.156,428.906 437.385,410.002 429.76,417.627 431.05,412.325 427.401,419.986 423.077,424.31 422.641,399.015 
				421.091,435.907 407.606,421.618 415.013,431.686 408.029,430.911 416.656,433.92 420.93,439.73 420.183,457.517 
				415.209,454.142 420.028,461.198 419.548,473.501 423.828,472.987 423.48,447.68 			"/>
		</g>
		<g>
			<path style="fill:#92E3A9;" d="M504.872,410.973c0,20.47-12.11,37.07-27.05,37.07c-10.7,0-19.95-8.52-24.33-20.88
				c-1.75-4.89-2.72-10.39-2.72-16.19c0-20.47,12.11-90.83,27.05-90.83c11.56,0,21.43,42.13,25.3,70.68
				C504.252,399.163,504.872,406.342,504.872,410.973z"/>
			<path style="opacity:0.54;" d="M504.872,410.973c0,20.47-12.11,37.07-27.05,37.07c-10.7,0-19.95-8.52-24.33-20.88
				c0.21-21.16,12.23-90.27,27.04-90.27c9.44,0,17.75,28.08,22.59,53.93C504.252,399.163,504.872,406.342,504.872,410.973z"/>
			<polygon style="fill:#263238;" points="492.987,421.682 484.796,424.711 486.439,419.781 482.524,425.552 478.614,426.998 
				478.335,410.807 492.564,391.903 484.939,399.528 486.228,394.226 482.581,401.887 478.256,406.211 477.82,380.916 
				476.27,417.808 462.785,403.519 470.192,413.587 463.208,412.811 471.835,415.821 476.109,421.631 475.361,439.418 
				470.388,436.043 475.207,443.099 474.322,466.997 479.286,466.483 478.659,429.581 			"/>
		</g>
		<g>
			<path style="fill:#92E3A9;" d="M579.532,364.332c0,31.97-18.91,57.89-42.24,57.89c-19.43,0-35.8-17.98-40.73-42.45
				c-0.99-4.91-1.52-10.09-1.52-15.44c0-31.97,18.92-141.86,42.25-141.86c23.08,0,41.83,107.54,42.23,140.8
				C579.532,363.633,579.532,363.992,579.532,364.332z"/>
			<path style="opacity:0.54;" d="M579.532,364.332c0,31.97-18.91,57.89-42.24,57.89c-19.43,0-35.8-17.98-40.73-42.45
				c1.48-36.55,19.78-137.47,42.15-137.47c19.55,0,35.99,77.15,40.81,120.97C579.532,363.633,579.532,363.992,579.532,364.332z"/>
			<polygon style="fill:#263238;" points="560.979,381.06 548.187,385.791 550.753,378.091 544.638,387.104 538.532,389.362 
				538.096,364.076 560.319,334.552 548.409,346.461 550.423,338.18 544.726,350.144 537.972,356.898 537.291,317.393 
				534.87,375.01 513.811,352.693 525.379,368.418 514.471,367.206 527.945,371.907 534.619,380.98 533.452,408.76 525.685,403.489 
				533.211,414.509 531.556,456.592 539.307,454.887 538.602,393.396 			"/>
		</g>
		<g>
			<path style="fill:#92E3A9;" d="M375.766,438.863c0,18.14-10.73,32.84-23.96,32.84c-10.37,0-19.2-9.03-22.54-21.67
				c-0.92-3.48-1.42-7.25-1.42-11.17c0-18.13,10.73-80.45,23.96-80.45c11.43,0,20.99,46.48,23.38,70.83
				C375.566,433.093,375.766,436.393,375.766,438.863z"/>
			<path style="opacity:0.54;" d="M375.766,438.863c0,18.14-10.73,32.84-23.96,32.84c-10.37,0-19.2-9.03-22.54-21.67
				c0.06-18.34,10.76-80.29,23.95-80.29c9.83,0,18.28,34.38,21.97,59.5C375.566,433.093,375.766,436.393,375.766,438.863z"/>
			<polygon style="fill:#263238;" points="365.238,448.355 357.983,451.038 359.439,446.671 355.97,451.782 352.508,453.063 
				352.26,438.723 364.864,421.978 358.109,428.732 359.252,424.036 356.021,430.821 352.19,434.652 351.804,412.247 
				350.431,444.923 338.487,432.267 345.048,441.185 338.862,440.498 346.504,443.164 350.289,448.309 349.627,464.064 
				345.222,461.075 349.49,467.325 349.883,477.931 352.793,477.931 352.547,455.351 			"/>
		</g>
	</g>
</g>
<g id="Plants">
	<g>
		<g>
			<g>
				<g>
					<g>
						<path style="fill:#263238;stroke:#263238;stroke-miterlimit:10;" d="M64.52,431.56v-62.69c0-0.148-0.12-0.267-0.267-0.267
							c-0.148,0-0.267,0.12-0.267,0.267v62.69H64.52z"/>
					</g>
					<g>
						<path style="fill:#263238;stroke:#263238;stroke-miterlimit:10;" d="M63.763,428.186c0,0-3.431-4.902-7.844-7.353
							c-4.412-2.451-11.765-2.451-11.765-2.451S48.076,432.598,63.763,428.186z"/>
					</g>
					<g>
						<path style="fill:#263238;stroke:#263238;stroke-miterlimit:10;" d="M64.253,428.186c0,0,3.432-4.902,7.844-7.353
							c4.412-2.451,11.765-2.451,11.765-2.451S79.94,432.598,64.253,428.186z"/>
					</g>
					<g>
						<path style="fill:#263238;stroke:#263238;stroke-miterlimit:10;" d="M63.763,410.538c0,0-3.431-4.902-7.844-7.353
							c-4.412-2.451-11.765-2.451-11.765-2.451S48.076,414.95,63.763,410.538z"/>
					</g>
					<g>
						<path style="fill:#263238;stroke:#263238;stroke-miterlimit:10;" d="M64.253,410.538c0,0,3.432-4.902,7.844-7.353
							c4.412-2.451,11.765-2.451,11.765-2.451S79.94,414.95,64.253,410.538z"/>
					</g>
					<g>
						<path style="fill:#263238;stroke:#263238;stroke-miterlimit:10;" d="M63.763,392.89c0,0-3.431-4.902-7.844-7.353
							c-4.412-2.451-11.765-2.451-11.765-2.451S48.076,397.302,63.763,392.89z"/>
					</g>
					<g>
						<path style="fill:#263238;stroke:#263238;stroke-miterlimit:10;" d="M64.253,392.89c0,0,3.432-4.902,7.844-7.353
							c4.412-2.451,11.765-2.451,11.765-2.451S79.94,397.302,64.253,392.89z"/>
					</g>
					<g>
						<path style="fill:#263238;stroke:#263238;stroke-miterlimit:10;" d="M63.763,375.242c0,0-3.431-4.902-7.844-7.353
							c-4.412-2.451-11.765-2.451-11.765-2.451S48.076,379.654,63.763,375.242z"/>
					</g>
					<g>
						<path style="fill:#263238;stroke:#263238;stroke-miterlimit:10;" d="M64.253,375.242c0,0,3.432-4.902,7.844-7.353
							c4.412-2.451,11.765-2.451,11.765-2.451S79.94,379.654,64.253,375.242z"/>
					</g>
					<g>
						<path style="fill:#263238;stroke:#263238;stroke-miterlimit:10;" d="M64.253,368.869c0,0-3.924-5.279-4.121-10.322
							c-0.198-5.043,3.119-11.606,3.119-11.606S75.266,356.858,64.253,368.869z"/>
					</g>
				</g>
			</g>
		</g>
		<g>
			<g>
				<g>
					<g>
						<path style="fill:#263238;stroke:#263238;stroke-miterlimit:10;" d="M256.833,478.401v-70.556
							c0-0.166-0.135-0.301-0.301-0.301c-0.166,0-0.301,0.135-0.301,0.301v70.556H256.833z"/>
					</g>
					<g>
						<path style="fill:#263238;stroke:#263238;stroke-miterlimit:10;" d="M255.981,474.604c0,0-3.862-5.517-8.828-8.276
							c-4.965-2.759-13.241-2.759-13.241-2.759S238.326,479.57,255.981,474.604z"/>
					</g>
					<g>
						<path style="fill:#263238;stroke:#263238;stroke-miterlimit:10;" d="M256.533,474.604c0,0,3.862-5.517,8.828-8.276
							c4.965-2.759,13.241-2.759,13.241-2.759S274.188,479.57,256.533,474.604z"/>
					</g>
					<g>
						<path style="fill:#263238;stroke:#263238;stroke-miterlimit:10;" d="M255.981,454.742c0,0-3.862-5.517-8.828-8.276
							c-4.965-2.758-13.241-2.758-13.241-2.758S238.326,459.708,255.981,454.742z"/>
					</g>
					<g>
						<path style="fill:#263238;stroke:#263238;stroke-miterlimit:10;" d="M256.533,454.742c0,0,3.862-5.517,8.828-8.276
							c4.965-2.758,13.241-2.758,13.241-2.758S274.188,459.708,256.533,454.742z"/>
					</g>
					<g>
						<path style="fill:#263238;stroke:#263238;stroke-miterlimit:10;" d="M255.981,434.88c0,0-3.862-5.517-8.828-8.276
							c-4.965-2.759-13.241-2.759-13.241-2.759S238.326,439.846,255.981,434.88z"/>
					</g>
					<g>
						<path style="fill:#263238;stroke:#263238;stroke-miterlimit:10;" d="M256.533,434.88c0,0,3.862-5.517,8.828-8.276
							c4.965-2.759,13.241-2.759,13.241-2.759S274.188,439.846,256.533,434.88z"/>
					</g>
					<g>
						<path style="fill:#263238;stroke:#263238;stroke-miterlimit:10;" d="M255.981,415.018c0,0-3.862-5.517-8.828-8.276
							c-4.965-2.758-13.241-2.758-13.241-2.758S238.326,419.984,255.981,415.018z"/>
					</g>
					<g>
						<path style="fill:#263238;stroke:#263238;stroke-miterlimit:10;" d="M256.533,415.018c0,0,3.862-5.517,8.828-8.276
							c4.965-2.758,13.241-2.758,13.241-2.758S274.188,419.984,256.533,415.018z"/>
					</g>
					<g>
						<path style="fill:#263238;stroke:#263238;stroke-miterlimit:10;" d="M256.533,407.846c0,0-4.416-5.941-4.638-11.617
							c-0.223-5.676,3.51-13.062,3.51-13.062S268.927,394.328,256.533,407.846z"/>
					</g>
				</g>
			</g>
		</g>
		<g>
			<g>
				<g>
					<g>
						<path style="fill:#263238;stroke:#263238;stroke-miterlimit:10;" d="M198.131,475.655V371.094
							c0-0.246-0.199-0.446-0.446-0.446c-0.247,0-0.446,0.199-0.446,0.446v104.561H198.131z"/>
					</g>
					<g>
						<path style="fill:#263238;stroke:#263238;stroke-miterlimit:10;" d="M196.868,470.027c0,0-5.723-8.176-13.082-12.264
							c-7.359-4.088-19.623-4.088-19.623-4.088S170.704,477.386,196.868,470.027z"/>
					</g>
					<g>
						<path style="fill:#263238;stroke:#263238;stroke-miterlimit:10;" d="M197.686,470.027c0,0,5.723-8.176,13.083-12.264
							c7.358-4.088,19.623-4.088,19.623-4.088S223.85,477.386,197.686,470.027z"/>
					</g>
					<g>
						<path style="fill:#263238;stroke:#263238;stroke-miterlimit:10;" d="M196.868,440.593c0,0-5.723-8.176-13.082-12.265
							c-7.359-4.088-19.623-4.088-19.623-4.088S170.704,447.951,196.868,440.593z"/>
					</g>
					<g>
						<path style="fill:#263238;stroke:#263238;stroke-miterlimit:10;" d="M197.686,440.593c0,0,5.723-8.176,13.083-12.265
							c7.358-4.088,19.623-4.088,19.623-4.088S223.85,447.951,197.686,440.593z"/>
					</g>
					<g>
						<path style="fill:#263238;stroke:#263238;stroke-miterlimit:10;" d="M196.868,411.158c0,0-5.723-8.176-13.082-12.264
							c-7.359-4.088-19.623-4.088-19.623-4.088S170.704,418.517,196.868,411.158z"/>
					</g>
					<g>
						<path style="fill:#263238;stroke:#263238;stroke-miterlimit:10;" d="M197.686,411.158c0,0,5.723-8.176,13.083-12.264
							c7.358-4.088,19.623-4.088,19.623-4.088S223.85,418.517,197.686,411.158z"/>
					</g>
					<g>
						<path style="fill:#263238;stroke:#263238;stroke-miterlimit:10;" d="M196.868,381.723c0,0-5.723-8.176-13.082-12.265
							c-7.359-4.088-19.623-4.088-19.623-4.088S170.704,389.081,196.868,381.723z"/>
					</g>
					<g>
						<path style="fill:#263238;stroke:#263238;stroke-miterlimit:10;" d="M197.686,381.723c0,0,5.723-8.176,13.083-12.265
							c7.358-4.088,19.623-4.088,19.623-4.088S223.85,389.081,197.686,381.723z"/>
					</g>
					<g>
						<path style="fill:#263238;stroke:#263238;stroke-miterlimit:10;" d="M197.686,371.094c0,0-6.544-8.804-6.874-17.216
							c-0.33-8.411,5.202-19.358,5.202-19.358S216.054,351.06,197.686,371.094z"/>
					</g>
				</g>
			</g>
		</g>
		<g>
			<g>
				<g>
					<g>
						<path style="fill:#263238;stroke:#263238;stroke-miterlimit:10;" d="M385.508,476.909v-32.551
							c0-0.077-0.062-0.139-0.139-0.139s-0.139,0.062-0.139,0.139v32.551H385.508z"/>
					</g>
					<g>
						<path style="fill:#263238;stroke:#263238;stroke-miterlimit:10;" d="M385.115,475.158c0,0-1.782-2.545-4.073-3.818
							c-2.291-1.273-6.109-1.273-6.109-1.273S376.97,477.448,385.115,475.158z"/>
					</g>
					<g>
						<path style="fill:#263238;stroke:#263238;stroke-miterlimit:10;" d="M385.37,475.158c0,0,1.782-2.545,4.073-3.818
							c2.291-1.273,6.109-1.273,6.109-1.273S393.515,477.448,385.37,475.158z"/>
					</g>
					<g>
						<path style="fill:#263238;stroke:#263238;stroke-miterlimit:10;" d="M385.115,465.994c0,0-1.782-2.545-4.073-3.818
							c-2.291-1.273-6.109-1.273-6.109-1.273S376.97,468.285,385.115,465.994z"/>
					</g>
					<g>
						<path style="fill:#263238;stroke:#263238;stroke-miterlimit:10;" d="M385.37,465.994c0,0,1.782-2.545,4.073-3.818
							c2.291-1.273,6.109-1.273,6.109-1.273S393.515,468.285,385.37,465.994z"/>
					</g>
					<g>
						<path style="fill:#263238;stroke:#263238;stroke-miterlimit:10;" d="M385.115,456.831c0,0-1.782-2.545-4.073-3.818
							c-2.291-1.273-6.109-1.273-6.109-1.273S376.97,459.122,385.115,456.831z"/>
					</g>
					<g>
						<path style="fill:#263238;stroke:#263238;stroke-miterlimit:10;" d="M385.37,456.831c0,0,1.782-2.545,4.073-3.818
							c2.291-1.273,6.109-1.273,6.109-1.273S393.515,459.122,385.37,456.831z"/>
					</g>
					<g>
						<path style="fill:#263238;stroke:#263238;stroke-miterlimit:10;" d="M385.115,447.667c0,0-1.782-2.545-4.073-3.818
							c-2.291-1.273-6.109-1.273-6.109-1.273S376.97,449.958,385.115,447.667z"/>
					</g>
					<g>
						<path style="fill:#263238;stroke:#263238;stroke-miterlimit:10;" d="M385.37,447.667c0,0,1.782-2.545,4.073-3.818
							c2.291-1.273,6.109-1.273,6.109-1.273S393.515,449.958,385.37,447.667z"/>
					</g>
					<g>
						<path style="fill:#263238;stroke:#263238;stroke-miterlimit:10;" d="M385.37,444.358c0,0-2.037-2.741-2.14-5.359
							c-0.103-2.618,1.619-6.026,1.619-6.026S391.088,438.122,385.37,444.358z"/>
					</g>
				</g>
			</g>
		</g>
		<g>
			<g>
				<g>
					<g>
						<path style="fill:#263238;stroke:#263238;stroke-miterlimit:10;" d="M513.799,462.741V430.19c0-0.077-0.062-0.139-0.139-0.139
							s-0.139,0.062-0.139,0.139v32.551H513.799z"/>
					</g>
					<g>
						<path style="fill:#263238;stroke:#263238;stroke-miterlimit:10;" d="M513.406,460.99c0,0-1.782-2.545-4.073-3.818
							c-2.291-1.273-6.109-1.273-6.109-1.273S505.261,463.281,513.406,460.99z"/>
					</g>
					<g>
						<path style="fill:#263238;stroke:#263238;stroke-miterlimit:10;" d="M513.661,460.99c0,0,1.782-2.545,4.073-3.818
							c2.291-1.273,6.109-1.273,6.109-1.273S521.806,463.281,513.661,460.99z"/>
					</g>
					<g>
						<path style="fill:#263238;stroke:#263238;stroke-miterlimit:10;" d="M513.406,451.826c0,0-1.782-2.545-4.073-3.818
							c-2.291-1.273-6.109-1.273-6.109-1.273S505.261,454.117,513.406,451.826z"/>
					</g>
					<g>
						<path style="fill:#263238;stroke:#263238;stroke-miterlimit:10;" d="M513.661,451.826c0,0,1.782-2.545,4.073-3.818
							c2.291-1.273,6.109-1.273,6.109-1.273S521.806,454.117,513.661,451.826z"/>
					</g>
					<g>
						<path style="fill:#263238;stroke:#263238;stroke-miterlimit:10;" d="M513.406,442.663c0,0-1.782-2.545-4.073-3.818
							c-2.291-1.273-6.109-1.273-6.109-1.273S505.261,444.954,513.406,442.663z"/>
					</g>
					<g>
						<path style="fill:#263238;stroke:#263238;stroke-miterlimit:10;" d="M513.661,442.663c0,0,1.782-2.545,4.073-3.818
							c2.291-1.273,6.109-1.273,6.109-1.273S521.806,444.954,513.661,442.663z"/>
					</g>
					<g>
						<path style="fill:#263238;stroke:#263238;stroke-miterlimit:10;" d="M513.406,433.499c0,0-1.782-2.545-4.073-3.818
							c-2.291-1.273-6.109-1.273-6.109-1.273S505.261,435.79,513.406,433.499z"/>
					</g>
					<g>
						<path style="fill:#263238;stroke:#263238;stroke-miterlimit:10;" d="M513.661,433.499c0,0,1.782-2.545,4.073-3.818
							c2.291-1.273,6.109-1.273,6.109-1.273S521.806,435.79,513.661,433.499z"/>
					</g>
					<g>
						<path style="fill:#263238;stroke:#263238;stroke-miterlimit:10;" d="M513.661,430.19c0,0-2.037-2.741-2.14-5.359
							c-0.103-2.619,1.619-6.026,1.619-6.026S519.379,423.954,513.661,430.19z"/>
					</g>
				</g>
			</g>
		</g>
		<g>
			<g>
				<g>
					<g>
						<path style="fill:#263238;stroke:#263238;stroke-miterlimit:10;" d="M551.106,453.164V432.5c0-0.049-0.039-0.088-0.088-0.088
							c-0.049,0-0.088,0.039-0.088,0.088v20.663H551.106z"/>
					</g>
					<g>
						<path style="fill:#263238;stroke:#263238;stroke-miterlimit:10;" d="M550.856,452.052c0,0-1.131-1.616-2.585-2.424
							c-1.454-0.808-3.878-0.808-3.878-0.808S545.685,453.506,550.856,452.052z"/>
					</g>
					<g>
						<path style="fill:#263238;stroke:#263238;stroke-miterlimit:10;" d="M551.018,452.052c0,0,1.131-1.616,2.585-2.424
							c1.454-0.808,3.878-0.808,3.878-0.808S556.188,453.506,551.018,452.052z"/>
					</g>
					<g>
						<path style="fill:#263238;stroke:#263238;stroke-miterlimit:10;" d="M550.856,446.235c0,0-1.131-1.616-2.585-2.424
							c-1.454-0.808-3.878-0.808-3.878-0.808S545.685,447.689,550.856,446.235z"/>
					</g>
					<g>
						<path style="fill:#263238;stroke:#263238;stroke-miterlimit:10;" d="M551.018,446.235c0,0,1.131-1.616,2.585-2.424
							c1.454-0.808,3.878-0.808,3.878-0.808S556.188,447.689,551.018,446.235z"/>
					</g>
					<g>
						<path style="fill:#263238;stroke:#263238;stroke-miterlimit:10;" d="M550.856,440.418c0,0-1.131-1.616-2.585-2.424
							c-1.454-0.808-3.878-0.808-3.878-0.808S545.685,441.872,550.856,440.418z"/>
					</g>
					<g>
						<path style="fill:#263238;stroke:#263238;stroke-miterlimit:10;" d="M551.018,440.418c0,0,1.131-1.616,2.585-2.424
							c1.454-0.808,3.878-0.808,3.878-0.808S556.188,441.872,551.018,440.418z"/>
					</g>
					<g>
						<path style="fill:#263238;stroke:#263238;stroke-miterlimit:10;" d="M550.856,434.601c0,0-1.131-1.616-2.585-2.424
							c-1.454-0.808-3.878-0.808-3.878-0.808S545.685,436.055,550.856,434.601z"/>
					</g>
					<g>
						<path style="fill:#263238;stroke:#263238;stroke-miterlimit:10;" d="M551.018,434.601c0,0,1.131-1.616,2.585-2.424
							c1.454-0.808,3.878-0.808,3.878-0.808S556.188,436.055,551.018,434.601z"/>
					</g>
					<g>
						<path style="fill:#263238;stroke:#263238;stroke-miterlimit:10;" d="M551.018,432.5c0,0-1.293-1.74-1.358-3.402
							c-0.065-1.662,1.028-3.826,1.028-3.826S554.647,428.541,551.018,432.5z"/>
					</g>
				</g>
			</g>
		</g>
		<g>
			<g>
				<g>
					<g>
						<path style="fill:#263238;stroke:#263238;stroke-miterlimit:10;" d="M598.287,434.193v-20.663
							c0-0.049-0.039-0.088-0.088-0.088s-0.088,0.039-0.088,0.088v20.663H598.287z"/>
					</g>
					<g>
						<path style="fill:#263238;stroke:#263238;stroke-miterlimit:10;" d="M598.038,433.08c0,0-1.131-1.616-2.585-2.424
							c-1.454-0.808-3.878-0.808-3.878-0.808S592.867,434.535,598.038,433.08z"/>
					</g>
					<g>
						<path style="fill:#263238;stroke:#263238;stroke-miterlimit:10;" d="M598.199,433.08c0,0,1.131-1.616,2.585-2.424
							c1.454-0.808,3.878-0.808,3.878-0.808S603.37,434.535,598.199,433.08z"/>
					</g>
					<g>
						<path style="fill:#263238;stroke:#263238;stroke-miterlimit:10;" d="M598.038,427.263c0,0-1.131-1.616-2.585-2.424
							c-1.454-0.808-3.878-0.808-3.878-0.808S592.867,428.718,598.038,427.263z"/>
					</g>
					<g>
						<path style="fill:#263238;stroke:#263238;stroke-miterlimit:10;" d="M598.199,427.263c0,0,1.131-1.616,2.585-2.424
							c1.454-0.808,3.878-0.808,3.878-0.808S603.37,428.718,598.199,427.263z"/>
					</g>
					<g>
						<path style="fill:#263238;stroke:#263238;stroke-miterlimit:10;" d="M598.038,421.447c0,0-1.131-1.616-2.585-2.424
							c-1.454-0.808-3.878-0.808-3.878-0.808S592.867,422.901,598.038,421.447z"/>
					</g>
					<g>
						<path style="fill:#263238;stroke:#263238;stroke-miterlimit:10;" d="M598.199,421.447c0,0,1.131-1.616,2.585-2.424
							c1.454-0.808,3.878-0.808,3.878-0.808S603.37,422.901,598.199,421.447z"/>
					</g>
					<g>
						<path style="fill:#263238;stroke:#263238;stroke-miterlimit:10;" d="M598.038,415.63c0,0-1.131-1.616-2.585-2.424
							s-3.878-0.808-3.878-0.808S592.867,417.084,598.038,415.63z"/>
					</g>
					<g>
						<path style="fill:#263238;stroke:#263238;stroke-miterlimit:10;" d="M598.199,415.63c0,0,1.131-1.616,2.585-2.424
							c1.454-0.808,3.878-0.808,3.878-0.808S603.37,417.084,598.199,415.63z"/>
					</g>
					<g>
						<path style="fill:#263238;stroke:#263238;stroke-miterlimit:10;" d="M598.199,413.529c0,0-1.293-1.74-1.358-3.402
							c-0.065-1.662,1.028-3.826,1.028-3.826S601.829,409.57,598.199,413.529z"/>
					</g>
				</g>
			</g>
		</g>
		<g>
			<g>
				<g>
					<g>
						<path style="fill:#263238;stroke:#263238;stroke-miterlimit:10;" d="M456.645,471.423v-20.663
							c0-0.049-0.039-0.088-0.088-0.088s-0.088,0.039-0.088,0.088v20.663H456.645z"/>
					</g>
					<g>
						<path style="fill:#263238;stroke:#263238;stroke-miterlimit:10;" d="M456.395,470.311c0,0-1.131-1.616-2.585-2.424
							c-1.454-0.808-3.878-0.808-3.878-0.808S451.224,471.765,456.395,470.311z"/>
					</g>
					<g>
						<path style="fill:#263238;stroke:#263238;stroke-miterlimit:10;" d="M456.557,470.311c0,0,1.131-1.616,2.585-2.424
							c1.454-0.808,3.878-0.808,3.878-0.808S461.727,471.765,456.557,470.311z"/>
					</g>
					<g>
						<path style="fill:#263238;stroke:#263238;stroke-miterlimit:10;" d="M456.395,464.494c0,0-1.131-1.616-2.585-2.424
							c-1.454-0.808-3.878-0.808-3.878-0.808S451.224,465.948,456.395,464.494z"/>
					</g>
					<g>
						<path style="fill:#263238;stroke:#263238;stroke-miterlimit:10;" d="M456.557,464.494c0,0,1.131-1.616,2.585-2.424
							c1.454-0.808,3.878-0.808,3.878-0.808S461.727,465.948,456.557,464.494z"/>
					</g>
					<g>
						<path style="fill:#263238;stroke:#263238;stroke-miterlimit:10;" d="M456.395,458.677c0,0-1.131-1.616-2.585-2.424
							c-1.454-0.808-3.878-0.808-3.878-0.808S451.224,460.131,456.395,458.677z"/>
					</g>
					<g>
						<path style="fill:#263238;stroke:#263238;stroke-miterlimit:10;" d="M456.557,458.677c0,0,1.131-1.616,2.585-2.424
							c1.454-0.808,3.878-0.808,3.878-0.808S461.727,460.131,456.557,458.677z"/>
					</g>
					<g>
						<path style="fill:#263238;stroke:#263238;stroke-miterlimit:10;" d="M456.395,452.86c0,0-1.131-1.616-2.585-2.424
							c-1.454-0.808-3.878-0.808-3.878-0.808S451.224,454.314,456.395,452.86z"/>
					</g>
					<g>
						<path style="fill:#263238;stroke:#263238;stroke-miterlimit:10;" d="M456.557,452.86c0,0,1.131-1.616,2.585-2.424
							c1.454-0.808,3.878-0.808,3.878-0.808S461.727,454.314,456.557,452.86z"/>
					</g>
					<g>
						<path style="fill:#263238;stroke:#263238;stroke-miterlimit:10;" d="M456.557,450.759c0,0-1.293-1.74-1.358-3.402
							c-0.065-1.662,1.028-3.826,1.028-3.826S460.187,446.801,456.557,450.759z"/>
					</g>
				</g>
			</g>
		</g>
		<g>
			<g>
				<g>
					<g>
						<path style="fill:#263238;stroke:#263238;stroke-miterlimit:10;" d="M106.356,455.412v-76.594c0-0.18-0.146-0.327-0.327-0.327
							c-0.181,0-0.327,0.146-0.327,0.327v76.594H106.356z"/>
					</g>
					<g>
						<path style="fill:#263238;stroke:#263238;stroke-miterlimit:10;" d="M105.431,451.29c0,0-4.193-5.989-9.583-8.984
							c-5.39-2.995-14.375-2.995-14.375-2.995S86.265,456.681,105.431,451.29z"/>
					</g>
					<g>
						<path style="fill:#263238;stroke:#263238;stroke-miterlimit:10;" d="M106.03,451.29c0,0,4.193-5.989,9.583-8.984
							c5.39-2.995,14.375-2.995,14.375-2.995S125.197,456.681,106.03,451.29z"/>
					</g>
					<g>
						<path style="fill:#263238;stroke:#263238;stroke-miterlimit:10;" d="M105.431,429.728c0,0-4.193-5.989-9.583-8.984
							c-5.39-2.995-14.375-2.995-14.375-2.995S86.265,435.118,105.431,429.728z"/>
					</g>
					<g>
						<path style="fill:#263238;stroke:#263238;stroke-miterlimit:10;" d="M106.03,429.728c0,0,4.193-5.989,9.583-8.984
							c5.39-2.995,14.375-2.995,14.375-2.995S125.197,435.118,106.03,429.728z"/>
					</g>
					<g>
						<path style="fill:#263238;stroke:#263238;stroke-miterlimit:10;" d="M105.431,408.166c0,0-4.193-5.99-9.583-8.984
							c-5.39-2.995-14.375-2.995-14.375-2.995S86.265,413.556,105.431,408.166z"/>
					</g>
					<g>
						<path style="fill:#263238;stroke:#263238;stroke-miterlimit:10;" d="M106.03,408.166c0,0,4.193-5.99,9.583-8.984
							c5.39-2.995,14.375-2.995,14.375-2.995S125.197,413.556,106.03,408.166z"/>
					</g>
					<g>
						<path style="fill:#263238;stroke:#263238;stroke-miterlimit:10;" d="M105.431,386.604c0,0-4.193-5.989-9.583-8.984
							c-5.39-2.995-14.375-2.995-14.375-2.995S86.265,391.994,105.431,386.604z"/>
					</g>
					<g>
						<path style="fill:#263238;stroke:#263238;stroke-miterlimit:10;" d="M106.03,386.604c0,0,4.193-5.989,9.583-8.984
							c5.39-2.995,14.375-2.995,14.375-2.995S125.197,391.994,106.03,386.604z"/>
					</g>
					<g>
						<path style="fill:#263238;stroke:#263238;stroke-miterlimit:10;" d="M106.03,378.818c0,0-4.794-6.449-5.035-12.611
							c-0.242-6.162,3.811-14.18,3.811-14.18S119.486,364.143,106.03,378.818z"/>
					</g>
				</g>
			</g>
		</g>
		<g>
			<g>
				<g>
					<g>
						<path style="fill:#263238;stroke:#263238;stroke-miterlimit:10;" d="M150.787,466.994v-53.359
							c0-0.126-0.102-0.228-0.227-0.228c-0.126,0-0.228,0.102-0.228,0.228v53.359H150.787z"/>
					</g>
					<g>
						<path style="fill:#263238;stroke:#263238;stroke-miterlimit:10;" d="M150.143,464.122c0,0-2.921-4.173-6.676-6.259
							c-3.755-2.086-10.014-2.086-10.014-2.086S136.79,467.878,150.143,464.122z"/>
					</g>
					<g>
						<path style="fill:#263238;stroke:#263238;stroke-miterlimit:10;" d="M150.56,464.122c0,0,2.921-4.173,6.676-6.259
							c3.755-2.086,10.014-2.086,10.014-2.086S163.912,467.878,150.56,464.122z"/>
					</g>
					<g>
						<path style="fill:#263238;stroke:#263238;stroke-miterlimit:10;" d="M150.143,449.101c0,0-2.921-4.173-6.676-6.259
							c-3.755-2.086-10.014-2.086-10.014-2.086S136.79,452.856,150.143,449.101z"/>
					</g>
					<g>
						<path style="fill:#263238;stroke:#263238;stroke-miterlimit:10;" d="M150.56,449.101c0,0,2.921-4.173,6.676-6.259
							c3.755-2.086,10.014-2.086,10.014-2.086S163.912,452.856,150.56,449.101z"/>
					</g>
					<g>
						<path style="fill:#263238;stroke:#263238;stroke-miterlimit:10;" d="M150.143,434.08c0,0-2.921-4.173-6.676-6.259
							c-3.755-2.086-10.014-2.086-10.014-2.086S136.79,437.835,150.143,434.08z"/>
					</g>
					<g>
						<path style="fill:#263238;stroke:#263238;stroke-miterlimit:10;" d="M150.56,434.08c0,0,2.921-4.173,6.676-6.259
							c3.755-2.086,10.014-2.086,10.014-2.086S163.912,437.835,150.56,434.08z"/>
					</g>
					<g>
						<path style="fill:#263238;stroke:#263238;stroke-miterlimit:10;" d="M150.143,419.059c0,0-2.921-4.172-6.676-6.259
							c-3.755-2.086-10.014-2.086-10.014-2.086S136.79,422.814,150.143,419.059z"/>
					</g>
					<g>
						<path style="fill:#263238;stroke:#263238;stroke-miterlimit:10;" d="M150.56,419.059c0,0,2.921-4.172,6.676-6.259
							c3.755-2.086,10.014-2.086,10.014-2.086S163.912,422.814,150.56,419.059z"/>
					</g>
					<g>
						<path style="fill:#263238;stroke:#263238;stroke-miterlimit:10;" d="M150.56,413.634c0,0-3.34-4.493-3.508-8.785
							c-0.168-4.293,2.655-9.879,2.655-9.879S159.934,403.411,150.56,413.634z"/>
					</g>
				</g>
			</g>
		</g>
	</g>
</g>
</svg>
